<svg width="109" height="33" viewBox="0 0 232 59" fill="none" xmlns="http://www.w3.org/2000/svg">
<path d="M16.7277 19.4991H11.3549V43.8151H3.48955V19.4991H0V13.1292H3.48955V11.5783C3.48955 7.81184 4.56042 5.04236 6.70215 3.26989C8.84388 1.49742 12.0749 0.666573 16.3953 0.777353V7.31333C14.5121 7.2764 13.2012 7.59028 12.4627 8.25496C11.7241 8.91963 11.3549 10.1197 11.3549 11.8553V13.1292H16.7277V19.4991Z" fill="#6b7280"/>
<path d="M18.6512 28.3614C18.6512 25.2596 19.2605 22.5086 20.479 20.1083C21.7345 17.7081 23.4147 15.8618 25.5195 14.5694C27.6612 13.277 30.043 12.6307 32.6648 12.6307C34.9542 12.6307 36.9482 13.0923 38.6468 14.0155C40.3824 14.9386 41.7671 16.1018 42.8011 17.505V13.1292H50.611V43.8151H42.8011V39.3286C41.804 40.7687 40.4193 41.9688 38.6468 42.9289C36.9113 43.852 34.8988 44.3136 32.6094 44.3136C30.0245 44.3136 27.6612 43.6489 25.5195 42.3196C23.4147 40.9902 21.7345 39.1255 20.479 36.7252C19.2605 34.2881 18.6512 31.5001 18.6512 28.3614ZM42.8011 28.4722C42.8011 26.5889 42.4318 24.9826 41.6933 23.6533C40.9547 22.287 39.9577 21.2531 38.7022 20.5515C37.4467 19.8129 36.0989 19.4437 34.6588 19.4437C33.2187 19.4437 31.8893 19.7945 30.6707 20.4961C29.4522 21.1977 28.4551 22.2316 27.6797 23.5979C26.9412 24.9272 26.5719 26.5151 26.5719 28.3614C26.5719 30.2077 26.9412 31.8325 27.6797 33.2357C28.4551 34.602 29.4522 35.6544 30.6707 36.3929C31.9262 37.1314 33.2556 37.5007 34.6588 37.5007C36.0989 37.5007 37.4467 37.1499 38.7022 36.4483C39.9577 35.7098 40.9547 34.6758 41.6933 33.3465C42.4318 31.9802 42.8011 30.3554 42.8011 28.4722Z" fill="#6b7280"/>
<path d="M91.3544 28.3614C91.3544 25.2596 91.9637 22.5086 93.1823 20.1083C94.4378 17.7081 96.1179 15.8618 98.2227 14.5694C100.364 13.277 102.746 12.6307 105.368 12.6307C107.657 12.6307 109.651 13.0923 111.35 14.0155C113.086 14.9386 114.47 16.1018 115.504 17.505V13.1292H123.314V43.8151H115.504V39.3286C114.507 40.7687 113.123 41.9688 111.35 42.9289C109.615 43.852 107.602 44.3136 105.313 44.3136C102.728 44.3136 100.364 43.6489 98.2227 42.3196C96.1179 40.9902 94.4378 39.1255 93.1823 36.7252C91.9637 34.2881 91.3544 31.5001 91.3544 28.3614ZM115.504 28.4722C115.504 26.5889 115.135 24.9826 114.397 23.6533C113.658 22.287 112.661 21.2531 111.405 20.5515C110.15 19.8129 108.802 19.4437 107.362 19.4437C105.922 19.4437 104.593 19.7945 103.374 20.4961C102.155 21.1977 101.158 22.2316 100.383 23.5979C99.6444 24.9272 99.2751 26.5151 99.2751 28.3614C99.2751 30.2077 99.6444 31.8325 100.383 33.2357C101.158 34.602 102.155 35.6544 103.374 36.3929C104.629 37.1314 105.959 37.5007 107.362 37.5007C108.802 37.5007 110.15 37.1499 111.405 36.4483C112.661 35.7098 113.658 34.6758 114.397 33.3465C115.135 31.9802 115.504 30.3554 115.504 28.4722Z" fill="#6b7280"/>
<path d="M127.786 28.3614C127.786 25.2596 128.395 22.5086 129.614 20.1083C130.869 17.7081 132.568 15.8618 134.71 14.5694C136.852 13.277 139.233 12.6307 141.855 12.6307C143.849 12.6307 145.751 13.0739 147.56 13.9601C149.37 14.8094 150.81 15.9541 151.881 17.3942V2.82677H159.746V43.8151H151.881V39.2732C150.921 40.7871 149.573 42.0057 147.837 42.9289C146.102 43.852 144.089 44.3136 141.8 44.3136C139.215 44.3136 136.852 43.6489 134.71 42.3196C132.568 40.9902 130.869 39.1255 129.614 36.7252C128.395 34.2881 127.786 31.5001 127.786 28.3614ZM151.936 28.4722C151.936 26.5889 151.567 24.9826 150.828 23.6533C150.09 22.287 149.093 21.2531 147.837 20.5515C146.582 19.8129 145.234 19.4437 143.794 19.4437C142.354 19.4437 141.024 19.7945 139.806 20.4961C138.587 21.1977 137.59 22.2316 136.815 23.5979C136.076 24.9272 135.707 26.5151 135.707 28.3614C135.707 30.2077 136.076 31.8325 136.815 33.2357C137.59 34.602 138.587 35.6544 139.806 36.3929C141.061 37.1314 142.391 37.5007 143.794 37.5007C145.234 37.5007 146.582 37.1499 147.837 36.4483C149.093 35.7098 150.09 34.6758 150.828 33.3465C151.567 31.9802 151.936 30.3554 151.936 28.4722Z" fill="#6b7280"/>
<path d="M164.218 28.3614C164.218 25.2596 164.827 22.5086 166.046 20.1083C167.301 17.7081 168.981 15.8618 171.086 14.5694C173.228 13.277 175.61 12.6307 178.231 12.6307C180.521 12.6307 182.515 13.0923 184.213 14.0155C185.949 14.9386 187.334 16.1018 188.368 17.505V13.1292H196.178V43.8151H188.368V39.3286C187.371 40.7687 185.986 41.9688 184.213 42.9289C182.478 43.852 180.465 44.3136 178.176 44.3136C175.591 44.3136 173.228 43.6489 171.086 42.3196C168.981 40.9902 167.301 39.1255 166.046 36.7252C164.827 34.2881 164.218 31.5001 164.218 28.3614ZM188.368 28.4722C188.368 26.5889 187.998 24.9826 187.26 23.6533C186.521 22.287 185.524 21.2531 184.269 20.5515C183.013 19.8129 181.666 19.4437 180.225 19.4437C178.785 19.4437 177.456 19.7945 176.237 20.4961C175.019 21.1977 174.022 22.2316 173.246 23.5979C172.508 24.9272 172.139 26.5151 172.139 28.3614C172.139 30.2077 172.508 31.8325 173.246 33.2357C174.022 34.602 175.019 35.6544 176.237 36.3929C177.493 37.1314 178.822 37.5007 180.225 37.5007C181.666 37.5007 183.013 37.1499 184.269 36.4483C185.524 35.7098 186.521 34.6758 187.26 33.3465C187.998 31.9802 188.368 30.3554 188.368 28.4722Z" fill="#6b7280"/>
<path d="M232 13.1292L213.001 58.3272H204.748L211.395 43.0397L199.099 13.1292H207.795L215.715 34.565L223.747 13.1292H232Z" fill="#6b7280"/>
<g clip-path="url(#clip0_102_714)">
<path fill-rule="evenodd" clip-rule="evenodd" d="M55.0547 17.7022V39.5757C55.0547 40.9586 55.6079 42.3416 56.6451 43.2174C57.2674 43.7476 58.028 44.0933 58.973 44.0933H82.022C82.8749 44.0933 83.6355 43.7476 84.1195 43.3788C85.4333 42.4107 85.9173 41.1661 85.9404 39.5526C85.9404 39.4374 85.9634 39.3913 85.9634 39.2761V39.0917C85.9404 34.8967 85.9634 30.6557 85.9634 26.4377C84.8801 26.8065 83.6816 27.2675 83.0132 27.6132C82.944 27.6363 82.8749 27.6593 82.8057 27.7054V35.012C82.8057 35.4269 82.7827 35.7956 82.7827 36.1875C82.7827 36.9711 82.7827 37.7779 82.7827 38.5846C82.7827 40.1289 82.8979 40.9356 81.6072 41.0047C81.3997 41.0047 81.2153 40.9817 81.0309 41.0047C80.5469 41.0739 63.191 41.0278 62.707 41.0278C62.2229 41.0278 61.8081 41.0047 61.3471 41.0047C60.7017 41.0047 59.2496 41.0739 58.7425 40.8434C58.4198 40.7051 58.2355 40.3824 58.2355 39.9445C58.2355 39.8292 58.2124 39.7831 58.2124 39.6448C58.2124 39.5296 58.2124 39.4143 58.2124 39.2991C58.2124 39.0456 58.1894 38.8612 58.1894 38.6307L58.1663 31.6007C58.1663 30.6096 58.1894 29.6877 58.1894 28.7196V24.3864C58.1894 23.8793 58.2124 23.4644 58.2124 22.9573V18.6241C58.2124 18.094 58.1663 17.0798 58.5351 16.7572C58.8578 16.4575 59.2496 16.4575 59.6875 16.4575C59.8489 16.4575 59.895 16.4345 60.0333 16.4345C65.8186 16.3653 71.7652 16.4345 77.5275 16.4345C78.242 16.4345 81.3767 16.3884 81.9298 16.5036C82.3678 16.5958 82.6444 16.8033 82.7366 17.2412C82.8057 17.6791 82.7366 18.2092 82.7827 18.6702C82.8288 19.1312 82.8057 19.6844 82.8057 20.1684C82.8057 20.6985 82.8288 21.1365 82.8288 21.6435V22.8882C83.7968 22.4964 84.811 22.1276 85.8021 21.851L85.9634 21.7818V18.555C85.9634 17.3795 85.8251 16.1348 85.2028 15.1898C85.1337 15.0515 85.0415 14.9593 84.9493 14.821C84.2578 13.9452 82.8749 13.2998 81.7224 13.2998H59.3418C58.7656 13.2998 58.0972 13.4842 57.567 13.6916C55.9766 14.3601 55.0547 15.9504 55.0547 17.7022Z" fill="#6b7280"/>
<path fill-rule="evenodd" clip-rule="evenodd" d="M71.7649 30.1933C71.6036 30.078 71.1657 29.6171 71.0043 29.4327C70.6125 29.0639 70.2207 28.6951 69.7827 28.3955L69.5522 28.2341C69.4831 28.188 69.3909 28.1419 69.3217 28.0958C69.2526 28.0267 69.1604 27.9806 69.0913 27.9345C68.1001 27.4504 67.1321 27.1047 66.0027 26.8051C65.0116 26.5746 63.8822 26.298 62.8219 26.4132C62.7067 26.4363 62.5914 26.4593 62.4762 26.4824C62.4762 26.8742 62.4531 27.1739 62.4531 27.5657C62.4531 27.9114 62.407 28.3033 62.407 28.649C62.407 29.3866 62.3379 30.1011 62.3379 30.8387C62.4301 30.8387 62.4301 30.8156 62.5453 30.8156C63.9513 30.8156 64.5506 30.8387 65.8183 31.3227C66.602 31.5993 67.3165 32.0603 67.9388 32.5904C67.9849 32.6365 68.008 32.6595 68.054 32.7056C68.2845 32.867 68.515 33.1205 68.6994 33.328L68.9069 33.5815C69.46 34.2499 69.8749 34.8492 70.2898 35.6098C70.7047 36.3935 71.0274 37.2002 71.304 38.03C71.327 38.1452 71.3731 38.3065 71.4192 38.3987C71.5575 38.3296 71.7649 38.2835 71.9263 38.2374L73.4936 37.7303C73.678 37.6612 73.8394 37.6151 74.0007 37.569L75.061 37.2232C75.2223 37.1771 75.4528 37.131 75.5911 37.0619C75.5911 36.9927 75.568 36.9006 75.568 36.8084C75.5219 36.4165 75.4528 35.9786 75.4528 35.5637C75.4528 35.4485 75.4297 35.4254 75.4297 35.3102C75.3836 34.0194 75.4989 32.89 75.9138 31.6684C76.1673 30.8848 76.5591 30.1933 77.0201 29.5249L77.3428 29.0869C77.6194 28.7642 78.1265 28.188 78.4492 27.9345C78.7718 27.6579 79.0945 27.3813 79.4403 27.1047L79.9012 26.782C80.2239 26.5515 80.5466 26.3441 80.8924 26.1597C81.3303 25.8831 81.9987 25.4913 82.4827 25.3069C82.5749 25.2608 82.6441 25.2147 82.7363 25.1686C82.8285 25.1225 82.9207 25.0994 83.0129 25.0533C84.1192 24.5002 86.6085 23.6243 87.761 23.3016L89.0056 22.9328C89.2131 22.8637 89.4205 22.7945 89.651 22.7484C89.5818 22.6332 89.1439 20.7893 89.0978 20.6049L88.6829 19.0145C88.6368 18.8532 88.6138 18.6227 88.5446 18.4844C88.268 18.5074 86.0553 19.1989 85.8018 19.2911C84.6033 19.6368 83.3586 20.0978 82.2062 20.5818C82.0909 20.6279 81.9987 20.674 81.8835 20.7201L80.9615 21.112C80.8693 21.1811 80.7771 21.2272 80.6619 21.2733C80.4544 21.3425 80.247 21.4577 80.0626 21.5499C79.4864 21.8726 78.9101 22.1722 78.357 22.541C77.6424 23.002 76.951 23.486 76.2826 24.0161C76.0521 24.2236 75.7985 24.408 75.568 24.6385C75.4989 24.7307 75.4297 24.7768 75.3375 24.8459C74.9688 25.2147 74.5769 25.5835 74.2542 25.9984L73.678 26.7359C73.0096 27.6118 72.4564 28.5338 72.0185 29.5249C71.9493 29.6632 71.7649 30.0319 71.7649 30.1933Z" fill="#6b7280"/>
</g>
<defs fill="#6b7280">
<clipPath id="clip0_102_714" fill="#6b7280">
<rect width="34.5966" height="30.7977" fill="#6b7280" transform="translate(55.0557 13.2959)"/>
</clipPath>
</defs>
</svg>