<svg width="109" height="33" viewBox="0 0 449 172" fill="none" xmlns="http://www.w3.org/2000/svg">
<path fill-rule="evenodd" clip-rule="evenodd" d="M416.07 79.7188H398.484V15.0234H415.047V22.2656C417.109 17.9141 422.281 14.0625 429.008 13.5703C440.398 13.0859 448.148 19.3672 448.148 32.8828V79.7188H430.047V30.9531C430.047 25.1641 430.047 20.3281 425.906 19.3672C424.351 18.8828 421.765 19.3672 419.695 20.8125C417.109 23.2344 416.07 26.125 416.07 30.9531V79.7188ZM110.265 47.3672C110.265 59.4375 110.265 69.0937 108.195 73.9297C106.64 76.3359 105.086 77.7891 101.461 77.7891C98.3592 77.7891 96.2889 76.3359 95.2576 73.9219C92.6717 69.0938 92.6717 59.4375 92.6717 47.3672C92.6717 35.7813 92.6717 25.6484 95.2498 20.8125C96.2889 18.3984 98.3592 16.9531 101.461 16.9531C105.086 16.9531 106.64 18.3984 108.195 20.8125C110.781 25.6406 110.265 35.7734 110.265 47.3672ZM116.984 19.3672C112.844 15.9844 107.672 13.5703 101.461 13.5703C95.2576 13.5703 90.6014 15.9922 85.9451 19.3672C78.6951 25.1641 74.0389 35.7813 74.0389 47.3672C74.0389 59.4375 78.6951 69.5781 85.9451 75.375C90.6014 78.75 95.2576 81.1641 101.461 81.1641C107.672 81.1641 112.851 78.75 116.992 75.375C124.75 69.5781 128.89 59.4375 128.89 47.3672C128.89 35.7813 124.742 25.1641 116.984 19.3672ZM297.578 104.344V121.719H293.961C291.89 114.477 288.781 108.203 280.5 107.719C275.328 107.242 270.672 110.141 270.156 114.477C269.64 118.828 271.187 122.68 280.5 127.523C292.406 133.789 301.719 136.688 301.719 149.727C301.719 163.727 288.781 170.492 277.914 170.492H257.211V146.352H260.836C263.429 158.898 267.562 166.625 277.398 167.109C283.609 167.109 288.258 163.727 288.258 157.453C288.258 151.172 284.125 147.313 274.297 142C263.429 135.727 256.703 131.859 256.703 123.172C256.703 111.586 265.5 104.344 279.469 104.344H297.578ZM320.344 79.7188V32.8828C320.344 19.3672 312.586 13.0859 301.203 13.5703C293.437 14.0547 288.781 18.8828 286.711 22.7422C284.125 15.9844 278.429 13.0859 270.148 13.5703C263.429 14.0547 258.25 17.9141 256.179 22.2656V15.0234H240.14V79.7109H257.734V30.9609C257.734 26.1328 258.25 23.2344 261.359 20.8203C263.429 19.375 265.5 18.8906 267.047 19.375C271.187 20.3359 271.187 25.1719 271.187 30.9609V79.7266H288.781V30.4688C288.781 26.1172 289.812 23.2188 292.406 20.8047C294.476 19.3594 296.547 18.875 298.094 19.3594C302.234 20.3203 302.75 25.1563 302.75 30.9453V79.7109H320.344V79.7188ZM140.789 79.7188H158.898V1.5H140.789V79.7188ZM201.844 20.3359C205.469 25.1641 205.469 36.7422 205.469 45.9219C205.469 55.5781 205.992 68.1328 201.851 73.4375C200.297 75.375 198.742 76.3359 196.156 76.3359C192.539 76.3359 190.469 72.4766 189.437 66.1953C188.914 60.4063 188.914 53.1641 188.914 45.4375C188.914 32.4062 189.945 17.9141 196.679 17.9141C199.258 17.9141 200.289 18.8828 201.844 20.3359ZM223.07 79.7188V1.5H204.953V19.8516C203.406 16.4688 199.781 14.0547 194.609 14.0547C181.672 14.0547 171.328 26.6094 170.804 45.9219C170.289 58.9609 174.945 80.6875 193.054 80.6875C200.297 80.6875 204.437 76.8203 205.992 73.4375V79.7188H223.07ZM363.812 41.0938L358.117 44.4688C352.429 47.8516 351.398 52.2031 350.875 57.0234C350.359 60.8906 350.359 64.2656 350.875 70.0625C351.39 75.375 355.015 76.3359 358.117 75.375C361.742 73.9219 363.812 67.6484 363.812 60.8906V41.0938ZM374.156 16.9531C378.82 19.375 381.922 23.2266 381.922 31.9219V79.7188H364.844V72.4766C362.781 77.7891 357.086 81.1641 349.32 81.1641C343.117 81.1641 332.25 78.2734 332.25 63.3047C332.25 49.2969 342.078 46.4063 352.953 42.0547C362.781 38.1953 363.812 37.7109 363.812 33.8516V23.2266C363.812 18.8828 361.226 16.9531 356.047 16.9531C353.984 17.4375 350.359 18.3984 350.359 20.8125C349.836 23.7109 353.461 23.7109 353.984 28.0547C354.5 34.8203 348.804 37.2266 343.633 36.75C340.008 36.75 335.867 34.8203 335.351 29.5078C334.836 20.8125 345.18 13.5703 359.672 13.5703C366.398 13.5703 370.539 15.0234 374.156 16.9531ZM107.672 131.375L101.984 134.758C96.2889 138.141 95.2576 142.484 94.7342 147.313C94.2264 151.172 94.2264 155.039 94.7342 160.344C94.7342 166.141 98.3592 167.109 101.461 165.656C105.601 164.211 107.672 158.422 107.672 151.172V131.375ZM118.023 107.234C122.679 110.133 125.265 113.516 125.265 122.203V170.484H108.719V163.242C106.648 168.07 100.961 171.445 93.1951 171.445C86.4686 171.445 76.117 169.039 76.117 154.07C76.117 140.07 85.9529 137.172 96.2967 132.82C106.648 128.484 107.679 128 107.679 124.617V113.992C107.679 109.172 105.094 107.242 99.9217 107.719C97.8514 107.719 94.2342 108.688 94.2342 111.102C93.7107 114.484 97.3357 114.484 97.8514 118.828C98.367 125.102 92.6795 127.516 87.4998 127.516C83.8826 127.031 79.742 125.102 79.2186 119.789C78.7029 111.586 89.0545 104.336 103.539 104.336C110.273 104.336 114.406 105.305 118.031 107.242L118.023 107.234ZM243.25 123.656C243.25 110.141 235.484 103.375 224.101 104.344C218.414 104.82 213.75 107.234 211.164 110.617V91.7891H193.562V136.211C193.562 152.617 181.14 168.07 168.719 167.586C159.929 167.586 157.859 161.313 156.82 154.555C155.273 144.898 155.273 133.797 156.304 121.719C157.344 114 159.414 107.719 165.625 107.719C170.281 107.719 170.797 110.617 168.726 112.547C166.656 114.969 163.554 117.375 165.101 122.688C166.656 128.484 176.484 129.445 181.148 125.109C184.765 121.242 184.25 114.961 181.664 111.102C178.554 106.273 173.383 104.344 165.625 104.344C155.789 104.344 137.164 112.547 137.164 138.617C137.164 166.625 156.304 171.453 167.172 171.453C179.594 171.453 190.453 161.313 193.562 153.102V170.484H211.156V121.719C211.156 116.898 212.187 114 214.781 111.578C216.851 110.133 219.437 109.648 220.992 110.133C225.133 111.102 225.133 115.93 225.133 121.719V170.484H243.242L243.25 123.656ZM62.1404 0.0546875V27.5781H58.5154C55.4139 14.0625 48.6873 3.91406 39.3748 3.4375C33.1639 2.95313 29.5389 6.32813 26.4373 11.1563C23.3357 16.9531 21.7811 29.0234 21.7811 43.5C21.7811 57.0234 22.2967 67.1641 23.8514 74.4063C24.8826 77.7891 27.4686 83.0938 34.1951 83.0938C37.8201 83.0938 40.4061 82.1328 41.9607 80.2031C44.5389 77.3047 45.0623 71.5078 45.0623 67.6484V54.6094C45.0623 49.7813 43.5154 46.8906 40.9217 45.4375C38.8592 44.4687 35.7498 44.4688 34.2029 43.9844V40.6094H63.1717V109.656H59.5545C57.9998 104.344 56.9686 100.477 54.3748 96.1328C51.7967 91.7891 47.1326 86.9609 39.3748 86.9609C31.0936 86.4766 24.8826 91.3047 24.8826 98.5469C24.8826 108.203 31.0936 110.617 42.4764 116.414C53.3436 122.203 67.3201 127.039 67.3201 143.93C67.3201 160.344 52.3045 170.492 35.2342 170.492H7.81231V137.172H11.4295C16.0857 162.281 27.4686 166.625 35.2342 166.625C45.0623 166.625 49.7186 160.828 49.7186 152.625C49.2029 142 41.4373 138.141 30.5779 132.828C15.0545 124.625 7.81231 120.758 7.81231 107.242C8.32793 95.6485 18.1561 88.4141 29.0232 85.5156C6.25762 83.0937 -0.468945 63.7891 0.0466801 43.0234C0.0466801 22.2656 12.9842 0.0546875 38.3357 0.0546875H62.1404Z" fill="#6B7280"/>
</svg>
