<svg width="109" height="33" viewBox="0 0 500 107" fill="none" xmlns="http://www.w3.org/2000/svg">
<g clip-path="url(#clip0_7_15981)">
<path d="M207.938 21.3272V85.3083H196.83V35.1009H196.682L176.836 85.3083H169.431L149.141 35.1009H148.993V85.3083H138.773V21.3272H154.769L173.134 68.7206H173.43L192.831 21.3272H207.938ZM217.121 26.2147C217.121 24.4374 217.713 22.9564 219.046 21.7715C220.379 20.5867 221.86 19.9943 223.637 19.9943C225.563 19.9943 227.192 20.5867 228.377 21.7715C229.561 22.9564 230.302 24.4374 230.302 26.2147C230.302 27.9919 229.709 29.473 228.377 30.6578C227.044 31.8426 225.563 32.435 223.637 32.435C221.712 32.435 220.231 31.8426 219.046 30.6578C217.861 29.3249 217.121 27.8438 217.121 26.2147ZM229.117 39.3959V85.3083H218.305V39.3959H229.117ZM261.848 77.4587C263.477 77.4587 265.254 77.1625 267.18 76.2739C269.105 75.5334 270.882 74.4967 272.512 73.3118V83.3829C270.734 84.4196 268.809 85.1602 266.587 85.6045C264.366 86.0488 261.996 86.345 259.33 86.345C252.518 86.345 247.038 84.2715 242.891 79.9765C238.596 75.6815 236.522 70.2016 236.522 63.685C236.522 56.2798 238.744 50.2076 243.039 45.4682C247.334 40.7289 253.406 38.3592 261.404 38.3592C263.477 38.3592 265.551 38.6554 267.476 39.0997C269.55 39.5441 271.179 40.2846 272.363 40.877V51.2443C270.734 50.0595 268.957 49.0227 267.328 48.4303C265.551 47.8379 263.773 47.3936 261.996 47.3936C257.701 47.3936 254.295 48.7265 251.629 51.5405C248.963 54.3545 247.778 58.0571 247.778 62.7964C247.778 67.3877 249.111 71.0903 251.629 73.608C254.147 76.1258 257.553 77.4587 261.848 77.4587ZM303.169 38.6554C304.058 38.6554 304.798 38.6554 305.539 38.8035C306.279 38.9516 306.872 39.0997 307.316 39.2478V50.2076C306.724 49.7632 305.983 49.3189 304.798 49.0227C303.613 48.7265 302.429 48.4303 300.8 48.4303C298.134 48.4303 295.912 49.6151 294.135 51.8367C292.358 54.0583 291.321 57.4647 291.321 62.204V85.3083H280.509V39.3959H291.321V46.6531H291.469C292.506 44.1353 293.987 42.2099 295.912 40.7289C297.986 39.3959 300.355 38.6554 303.169 38.6554ZM307.909 63.0926C307.909 55.5393 310.13 49.467 314.277 45.0239C318.572 40.5808 324.496 38.3592 332.049 38.3592C339.159 38.3592 344.786 40.4327 348.785 44.7277C352.784 49.0227 354.858 54.7988 354.858 62.0559C354.858 69.4611 352.636 75.3853 348.489 79.8284C344.194 84.2715 338.418 86.4931 331.013 86.4931C323.904 86.4931 318.276 84.4196 314.129 80.2727C309.982 75.9777 307.909 70.2016 307.909 63.0926ZM319.164 62.6483C319.164 67.3877 320.201 71.0903 322.423 73.608C324.644 76.1258 327.754 77.4587 331.753 77.4587C335.604 77.4587 338.714 76.2739 340.788 73.608C342.861 71.0903 343.898 67.3876 343.898 62.3521C343.898 57.4647 342.861 53.7621 340.788 51.0962C338.714 48.5784 335.604 47.2455 331.901 47.2455C327.903 47.2455 324.94 48.5784 322.719 51.2443C320.201 54.0583 319.164 57.7609 319.164 62.6483ZM371.001 51.5405C371.001 53.0215 371.445 54.3545 372.482 55.2431C373.519 56.1317 375.592 57.1685 378.999 58.5014C383.294 60.2786 386.404 62.204 388.033 64.2775C389.81 66.499 390.699 69.0168 390.699 72.127C390.699 76.422 389.07 79.8284 385.663 82.4943C382.405 85.1602 377.814 86.345 372.186 86.345C370.26 86.345 368.187 86.0488 365.817 85.6045C363.448 85.1602 361.522 84.5677 359.893 83.8272V73.1637C361.818 74.4967 364.04 75.6815 366.262 76.422C368.483 77.1625 370.557 77.6068 372.482 77.6068C374.852 77.6068 376.777 77.3106 377.814 76.5701C378.999 75.8296 379.591 74.7929 379.591 73.1637C379.591 71.6827 378.999 70.4978 377.814 69.313C376.629 68.2763 374.259 67.0914 371.001 65.7585C367.002 64.1294 364.188 62.204 362.559 60.1305C360.93 58.0571 360.041 55.3912 360.041 52.1329C360.041 47.986 361.67 44.5796 364.929 41.9137C368.187 39.2478 372.482 37.9149 377.666 37.9149C379.295 37.9149 381.072 38.063 382.997 38.5073C384.923 38.9516 386.7 39.3959 388.033 39.8403V50.3557C386.552 49.467 384.923 48.5784 382.997 47.8379C381.072 47.0974 379.147 46.8012 377.369 46.8012C375.296 46.8012 373.667 47.2455 372.63 47.986C371.593 49.0227 371.001 50.0595 371.001 51.5405ZM395.29 63.0926C395.29 55.5393 397.512 49.467 401.659 45.0239C405.954 40.5808 411.878 38.3592 419.431 38.3592C426.54 38.3592 432.168 40.4327 436.167 44.7277C440.166 49.0227 442.239 54.7988 442.239 62.0559C442.239 69.4611 440.017 75.3853 435.871 79.8284C431.576 84.2715 425.8 86.4931 418.394 86.4931C411.285 86.4931 405.657 84.4196 401.51 80.2727C397.512 75.9777 395.29 70.2016 395.29 63.0926ZM406.546 62.6483C406.546 67.3877 407.583 71.0903 409.804 73.608C412.026 76.1258 415.136 77.4587 419.135 77.4587C422.986 77.4587 426.096 76.2739 428.169 73.608C430.243 71.0903 431.279 67.3876 431.279 62.3521C431.279 57.4647 430.243 53.7621 428.169 51.0962C426.096 48.5784 422.986 47.2455 419.283 47.2455C415.284 47.2455 412.322 48.5784 410.1 51.2443C407.731 54.0583 406.546 57.7609 406.546 62.6483ZM478.228 48.2822H462.085V85.3083H451.125V48.2822H443.424V39.3959H451.125V33.0275C451.125 28.2881 452.754 24.2893 455.865 21.1791C458.975 18.0689 462.974 16.5879 467.861 16.5879C469.194 16.5879 470.379 16.736 471.416 16.736C472.452 16.736 473.341 17.0322 474.082 17.3284V26.659C473.785 26.5109 473.045 26.2147 472.156 25.9185C471.267 25.6223 470.231 25.4741 469.046 25.4741C466.824 25.4741 465.047 26.2147 463.862 27.5476C462.677 28.8805 462.085 31.1021 462.085 33.768V39.2478H478.228V28.8805L489.04 25.6222V39.2478H500V48.1341H489.04V69.6092C489.04 72.4232 489.632 74.3486 490.521 75.5334C491.558 76.7182 493.187 77.3106 495.409 77.3106C496.001 77.3106 496.741 77.1625 497.63 76.8663C498.519 76.5701 499.259 76.2739 499.852 75.8296V84.7159C499.111 85.1602 498.074 85.4564 496.445 85.7526C494.816 86.0488 493.335 86.1969 491.706 86.1969C487.115 86.1969 483.708 85.0121 481.487 82.6424C479.265 80.2727 478.08 76.5701 478.08 71.6827L478.228 48.2822Z" fill="#6B7280"/>
<path d="M50.6517 0H0V50.6517H50.6517V0Z" fill="#6B7280"/>
<path d="M106.635 0H55.9834V50.6517H106.635V0Z" fill="#6B7280"/>
<path d="M50.6517 55.9834H0V106.635H50.6517V55.9834Z" fill="#6B7280"/>
<path d="M106.635 55.9834H55.9834V106.635H106.635V55.9834Z" fill="#6B7280"/>
</g>
<defs>
<clipPath id="clip0_7_15981">
<rect width="500" height="106.635" fill="white"/>
</clipPath>
</defs>
</svg>
